<svg width="40" height="40" viewBox="0 0 40 40" fill="none" xmlns="http://www.w3.org/2000/svg">
<path d="M31.6666 6.6665H8.33331C7.00723 6.6665 5.73546 7.19329 4.79778 8.13097C3.8601 9.06865 3.33331 10.3404 3.33331 11.6665V28.3332C3.33331 29.6593 3.8601 30.931 4.79778 31.8687C5.73546 32.8064 7.00723 33.3332 8.33331 33.3332H31.6666C32.9927 33.3332 34.2645 32.8064 35.2022 31.8687C36.1399 30.931 36.6666 29.6593 36.6666 28.3332V11.6665C36.6666 10.3404 36.1399 9.06865 35.2022 8.13097C34.2645 7.19329 32.9927 6.6665 31.6666 6.6665ZM30.55 9.99984L20 17.9165L9.44998 9.99984H30.55ZM31.6666 29.9998H8.33331C7.89129 29.9998 7.46736 29.8242 7.1548 29.5117C6.84224 29.1991 6.66665 28.7752 6.66665 28.3332V12.0832L19 21.3332C19.2885 21.5495 19.6394 21.6665 20 21.6665C20.3606 21.6665 20.7115 21.5495 21 21.3332L33.3333 12.0832V28.3332C33.3333 28.7752 33.1577 29.1991 32.8452 29.5117C32.5326 29.8242 32.1087 29.9998 31.6666 29.9998Z" fill="white"/>
</svg>
