<svg width="18" height="18" viewBox="0 0 18 18" fill="none" xmlns="http://www.w3.org/2000/svg">
<path d="M9 0.872192C7.02123 0.872274 5.10705 1.57645 3.59997 2.85873C2.09289 4.14101 1.09125 5.91771 0.774275 7.87093C0.457302 9.82415 0.845679 11.8264 1.86991 13.5195C2.89415 15.2126 4.4874 16.4859 6.3646 17.1118C6.78126 17.1847 6.93751 16.9347 6.93751 16.7159C6.93751 16.518 6.92709 15.8618 6.92709 15.1639C4.83333 15.5493 4.29166 14.6535 4.125 14.1847C3.94006 13.7288 3.64689 13.3248 3.27083 13.0076C2.97916 12.8514 2.5625 12.4659 3.26041 12.4555C3.52689 12.4845 3.78249 12.5772 4.00552 12.7259C4.22856 12.8746 4.41247 13.0748 4.54166 13.3097C4.65564 13.5144 4.8089 13.6947 4.99266 13.8401C5.17641 13.9855 5.38706 14.0932 5.61252 14.1571C5.83799 14.221 6.07384 14.2397 6.30656 14.2123C6.53929 14.1848 6.76431 14.1117 6.96873 13.9972C7.00481 13.5735 7.19361 13.1774 7.5 12.8826C5.64583 12.6743 3.70833 11.9555 3.70833 8.76805C3.69662 7.93984 4.00224 7.13853 4.5625 6.52847C4.30773 5.80865 4.33754 5.0187 4.64583 4.32013C4.64583 4.32013 5.34372 4.10138 6.9375 5.1743C8.30107 4.79928 9.74059 4.79928 11.1042 5.1743C12.6979 4.09097 13.3958 4.32013 13.3958 4.32013C13.7042 5.01869 13.734 5.80866 13.4792 6.52847C14.0411 7.13749 14.347 7.93949 14.3333 8.76805C14.3333 11.9659 12.3854 12.6743 10.5312 12.8826C10.7301 13.0842 10.8833 13.3262 10.9803 13.5922C11.0774 13.8582 11.1161 14.142 11.0937 14.4243C11.0937 15.5389 11.0833 16.4347 11.0833 16.716C11.0833 16.9347 11.2396 17.1951 11.6562 17.1118C13.5301 16.4809 15.1188 15.2045 16.1387 13.5106C17.1585 11.8166 17.5432 9.81538 17.2241 7.86406C16.9049 5.91273 15.9026 4.13834 14.3962 2.85762C12.8898 1.5769 10.9773 0.873221 9 0.872192Z" fill="white"/>
</svg>
