<svg width="100" height="100" viewBox="0 0 100 100" fill="none" xmlns="http://www.w3.org/2000/svg">
<rect width="100" height="100" rx="50" fill="#4DD038"/>
<path d="M45.4546 34.091C45.0051 34.091 44.5657 34.2243 44.1919 34.474C43.8182 34.7237 43.5269 35.0787 43.3548 35.494C43.1828 35.9092 43.1378 36.3662 43.2255 36.8071C43.3132 37.248 43.5297 37.6529 43.8475 37.9708C44.1654 38.2886 44.5703 38.5051 45.0112 38.5928C45.4521 38.6804 45.909 38.6354 46.3243 38.4634C46.7396 38.2914 47.0945 38.0001 47.3443 37.6264C47.594 37.2526 47.7273 36.8132 47.7273 36.3637C47.7273 35.7609 47.4879 35.1829 47.0616 34.7566C46.6354 34.3304 46.0573 34.091 45.4546 34.091ZM36.3637 34.091C35.9142 34.091 35.4748 34.2243 35.101 34.474C34.7273 34.7237 34.436 35.0787 34.2639 35.494C34.0919 35.9092 34.0469 36.3662 34.1346 36.8071C34.2223 37.248 34.4388 37.6529 34.7566 37.9708C35.0745 38.2886 35.4794 38.5051 35.9203 38.5928C36.3611 38.6804 36.8181 38.6354 37.2334 38.4634C37.6487 38.2914 38.0036 38.0001 38.2534 37.6264C38.5031 37.2526 38.6364 36.8132 38.6364 36.3637C38.6364 35.7609 38.3969 35.1829 37.9707 34.7566C37.5445 34.3304 36.9664 34.091 36.3637 34.091ZM54.5455 34.091C54.096 34.091 53.6566 34.2243 53.2828 34.474C52.9091 34.7237 52.6178 35.0787 52.4458 35.494C52.2737 35.9092 52.2287 36.3662 52.3164 36.8071C52.4041 37.248 52.6206 37.6529 52.9384 37.9708C53.2563 38.2886 53.6612 38.5051 54.1021 38.5928C54.543 38.6804 54.9999 38.6354 55.4152 38.4634C55.8305 38.2914 56.1855 38.0001 56.4352 37.6264C56.6849 37.2526 56.8182 36.8132 56.8182 36.3637C56.8182 35.7609 56.5788 35.1829 56.1525 34.7566C55.7263 34.3304 55.1482 34.091 54.5455 34.091ZM68.1818 25.0001H31.8182C30.0099 25.0001 28.2757 25.7184 26.997 26.9971C25.7184 28.2757 25 30.0099 25 31.8182V68.1819C25 69.9902 25.7184 71.7244 26.997 73.0031C28.2757 74.2817 30.0099 75.0001 31.8182 75.0001H68.1818C69.9901 75.0001 71.7244 74.2817 73.003 73.0031C74.2817 71.7244 75 69.9902 75 68.1819V31.8182C75 30.0099 74.2817 28.2757 73.003 26.9971C71.7244 25.7184 69.9901 25.0001 68.1818 25.0001ZM70.4546 68.1819C70.4546 68.7846 70.2151 69.3627 69.7889 69.7889C69.3627 70.2152 68.7846 70.4546 68.1818 70.4546H31.8182C31.2154 70.4546 30.6374 70.2152 30.2112 69.7889C29.7849 69.3627 29.5455 68.7846 29.5455 68.1819V47.7273H70.4546V68.1819ZM70.4546 43.1819H29.5455V31.8182C29.5455 31.2155 29.7849 30.6374 30.2112 30.2112C30.6374 29.785 31.2154 29.5455 31.8182 29.5455H68.1818C68.7846 29.5455 69.3627 29.785 69.7889 30.2112C70.2151 30.6374 70.4546 31.2155 70.4546 31.8182V43.1819Z" fill="white"/>
</svg>
