<svg width="100" height="100" viewBox="0 0 100 100" fill="none" xmlns="http://www.w3.org/2000/svg">
<rect x="0.495056" width="99.0099" height="100" rx="49.505" fill="#12C0B6"/>
<path fill-rule="evenodd" clip-rule="evenodd" d="M70.9622 64.5852C71.0379 64.6761 71.1012 64.7783 71.1493 64.8897L74.4082 72.3959C74.7276 73.0884 74.5866 73.9061 74.0525 74.4503C73.519 74.9941 72.7054 75.1515 72.0068 74.8459L64.3514 71.7249C64.2303 71.6754 64.1189 71.6079 64.0207 71.5266L70.9622 64.5852ZM35.7504 57.4035L42.2115 63.3106L41.8308 68.5202C41.7163 70.084 40.615 71.3979 39.0977 71.7852C38.6352 71.9161 29.9117 74.3716 27.8415 74.5873C27.4725 74.6261 27.0703 74.552 26.6885 74.3844L29.8775 71.1255C30.2618 70.7325 30.2551 70.1008 29.8616 69.716C29.4686 69.3317 28.837 69.3384 28.4527 69.7319L25.2479 73.0071C25.0415 72.5906 24.9469 72.143 24.9893 71.7357C25.205 69.6649 27.6611 60.9424 27.7914 60.4794C28.1788 58.9616 29.4937 57.8603 31.0569 57.7459L35.7504 57.4035ZM39.0977 71.7852L39.1166 71.7801L39.0767 71.7903C39.0839 71.7888 39.091 71.7873 39.0977 71.7852ZM62.2674 70.4611C62.2168 70.4238 62.1682 70.3819 62.1222 70.3359L51.2825 59.4962C53.8387 57.4464 56.5815 55.0225 59.3605 52.3191L69.75 62.7086C69.7955 62.7541 69.8369 62.8026 69.8747 62.8537L62.2674 70.4611ZM37.074 55.9133C39.6655 51.6696 44.2367 46.0384 49.9323 40.3438C57.1636 33.1121 64.3028 27.6981 68.6498 25.8118C69.9565 25.2446 71.0573 24.9839 71.8826 25.0008C72.7264 25.0182 73.3677 25.2987 73.8231 25.7541C74.2784 26.2094 74.5595 26.8508 74.5763 27.6945C74.5937 28.5198 74.3331 29.6201 73.7658 30.9274C71.8791 35.2743 66.4651 42.4136 59.2338 49.6448C53.7013 55.1774 48.2295 59.6495 44.0328 62.2752L37.074 55.9133ZM27.7914 60.4794C27.7898 60.4866 27.7878 60.4937 27.7863 60.5004L27.797 60.4605L27.7914 60.4794ZM40.0804 48.2952L24.8657 33.0804C24.3715 32.5862 24.3715 31.7844 24.8657 31.2902L30.7038 25.4526C31.198 24.9579 31.9993 24.9579 32.494 25.4526L47.258 40.2166C44.5551 42.9956 42.1312 45.7384 40.0804 48.2952Z" fill="white"/>
</svg>
