<svg width="100" height="100" viewBox="0 0 100 100" fill="none" xmlns="http://www.w3.org/2000/svg">
<rect width="100" height="100" rx="50" fill="#BF2121"/>
<path d="M73.6111 75H26.3889C26.0205 75 25.6673 74.8537 25.4068 74.5932C25.1463 74.3327 25 73.9795 25 73.6111V26.3889C25 26.0205 25.1463 25.6673 25.4068 25.4068C25.6673 25.1463 26.0205 25 26.3889 25H73.6111C73.9795 25 74.3327 25.1463 74.5932 25.4068C74.8537 25.6673 75 26.0205 75 26.3889V73.6111C75 73.9795 74.8537 74.3327 74.5932 74.5932C74.3327 74.8537 73.9795 75 73.6111 75ZM27.7778 72.2222H72.2222V27.7778H27.7778V72.2222Z" fill="white"/>
<path d="M31.9444 33.3333C32.7115 33.3333 33.3333 32.7115 33.3333 31.9444C33.3333 31.1774 32.7115 30.5555 31.9444 30.5555C31.1774 30.5555 30.5555 31.1774 30.5555 31.9444C30.5555 32.7115 31.1774 33.3333 31.9444 33.3333Z" fill="white"/>
<path d="M37.5 33.3333C38.2671 33.3333 38.8889 32.7115 38.8889 31.9444C38.8889 31.1774 38.2671 30.5555 37.5 30.5555C36.733 30.5555 36.1111 31.1774 36.1111 31.9444C36.1111 32.7115 36.733 33.3333 37.5 33.3333Z" fill="white"/>
<path d="M43.0556 33.3333C43.8226 33.3333 44.4444 32.7115 44.4444 31.9444C44.4444 31.1774 43.8226 30.5555 43.0556 30.5555C42.2885 30.5555 41.6667 31.1774 41.6667 31.9444C41.6667 32.7115 42.2885 33.3333 43.0556 33.3333Z" fill="white"/>
<path d="M45.8333 38.8889H26.3889C26.0205 38.8889 25.6673 38.7426 25.4068 38.4821C25.1463 38.2216 25 37.8684 25 37.5C25 37.1317 25.1463 36.7784 25.4068 36.5179C25.6673 36.2574 26.0205 36.1111 26.3889 36.1111H45.2639L50.4028 30.9583C50.5326 30.8296 50.6865 30.7278 50.8557 30.6587C51.0249 30.5895 51.2061 30.5545 51.3889 30.5556H73.6111C73.9795 30.5556 74.3327 30.7019 74.5932 30.9624C74.8537 31.2228 75 31.5761 75 31.9445C75 32.3128 74.8537 32.6661 74.5932 32.9265C74.3327 33.187 73.9795 33.3333 73.6111 33.3333H51.9583L46.8194 38.4861C46.6897 38.6148 46.5358 38.7167 46.3665 38.7858C46.1973 38.8549 46.0161 38.89 45.8333 38.8889ZM39.7083 61.1111C39.5255 61.1122 39.3443 61.0771 39.1751 61.008C39.0059 60.9389 38.852 60.8371 38.7222 60.7083L33.1667 55.1528C33.0365 55.0237 32.9332 54.8701 32.8627 54.7008C32.7921 54.5316 32.7558 54.35 32.7558 54.1667C32.7558 53.9833 32.7921 53.8018 32.8627 53.6325C32.9332 53.4633 33.0365 53.3097 33.1667 53.1806L38.7222 47.625C38.9824 47.3663 39.3345 47.2211 39.7014 47.2211C40.0683 47.2211 40.4203 47.3663 40.6806 47.625C40.8107 47.7541 40.9141 47.9077 40.9846 48.077C41.0551 48.2462 41.0914 48.4278 41.0914 48.6111C41.0914 48.7945 41.0551 48.976 40.9846 49.1453C40.9141 49.3145 40.8107 49.4681 40.6806 49.5972L36.1111 54.1667L40.6806 58.7361C40.8756 58.9296 41.0089 59.1765 41.0636 59.4457C41.1183 59.7148 41.0919 59.9942 40.9879 60.2484C40.8838 60.5026 40.7067 60.7203 40.4789 60.8738C40.2512 61.0274 39.983 61.11 39.7083 61.1111ZM60.5417 61.1111C60.2658 61.1127 59.9957 61.0321 59.7658 60.8796C59.5359 60.7271 59.3567 60.5096 59.2509 60.2548C59.1451 60.0001 59.1176 59.7195 59.1718 59.4491C59.2261 59.1786 59.3597 58.9304 59.5556 58.7361L64.125 54.1667L59.5556 49.5972C59.4254 49.4681 59.322 49.3145 59.2515 49.1453C59.181 48.976 59.1447 48.7945 59.1447 48.6111C59.1447 48.4278 59.181 48.2462 59.2515 48.077C59.322 47.9077 59.4254 47.7541 59.5556 47.625C59.8158 47.3663 60.1678 47.2211 60.5347 47.2211C60.9016 47.2211 61.2537 47.3663 61.5139 47.625L67.0694 53.1806C67.1996 53.3097 67.3029 53.4633 67.3735 53.6325C67.444 53.8018 67.4803 53.9833 67.4803 54.1667C67.4803 54.35 67.444 54.5316 67.3735 54.7008C67.3029 54.8701 67.1996 55.0237 67.0694 55.1528L61.5139 60.7083C61.2552 60.9649 60.906 61.1096 60.5417 61.1111ZM47.2222 61.1111C47.0043 61.1137 46.7893 61.0612 46.5972 60.9583C46.2701 60.7918 46.0222 60.5026 45.9077 60.1539C45.7932 59.8051 45.8214 59.4252 45.9861 59.0972L51.5417 47.9861C51.6151 47.8098 51.7241 47.6505 51.8618 47.5182C51.9996 47.386 52.1632 47.2835 52.3423 47.2173C52.5215 47.1511 52.7123 47.1225 52.903 47.1334C53.0937 47.1443 53.2801 47.1944 53.4505 47.2806C53.621 47.3668 53.7718 47.4872 53.8936 47.6343C54.0154 47.7814 54.1056 47.952 54.1584 48.1356C54.2113 48.3191 54.2258 48.5115 54.2009 48.7009C54.176 48.8903 54.1124 49.0725 54.0139 49.2361L48.4583 60.3472C48.3429 60.5763 48.1663 60.7689 47.9481 60.9037C47.73 61.0386 47.4787 61.1103 47.2222 61.1111Z" fill="white"/>
</svg>
