<svg width="100" height="100" viewBox="0 0 100 100" fill="none" xmlns="http://www.w3.org/2000/svg">
<rect width="100" height="100" rx="50" fill="#C0125B"/>
<path d="M32.2147 25C28.2555 25 25 28.275 25 32.2342V67.7658C25 71.725 28.2555 75 32.2147 75H67.7658C71.7249 75 74.9805 71.725 74.9805 67.7658V32.2342C74.9805 28.275 71.7249 25 67.7658 25H32.2147ZM32.2147 30.0035H42.49V47.5081C42.508 49.7213 45.1816 50.8208 46.7514 49.2605L50.0024 46.0339L53.229 49.2605C54.7989 50.8208 57.4724 49.7214 57.4905 47.5081V30.0035H67.7658C69.0235 30.0035 69.9819 30.9765 69.9819 32.2342V67.7658C69.9819 69.0236 69.0235 70.0015 67.7658 70.0015H32.2147C30.9569 70.0015 30.0034 69.0236 30.0034 67.7658V32.2342C30.0034 30.9765 30.9569 30.0035 32.2147 30.0035ZM47.4885 30.0035H52.4919V41.4747L51.7549 40.7376C50.7799 39.7685 49.2054 39.7685 48.2305 40.7376L47.4885 41.4747L47.4885 30.0035Z" fill="white"/>
</svg>
