<svg width="100" height="100" viewBox="0 0 100 100" fill="none" xmlns="http://www.w3.org/2000/svg">
<rect width="100" height="100" rx="50" fill="#DA3DC1"/>
<path d="M43.1052 67.1053C42.3245 67.1053 41.5613 67.3368 40.9122 67.7705C40.2631 68.2043 39.7571 68.8208 39.4583 69.542C39.1596 70.2633 39.0814 71.057 39.2337 71.8227C39.386 72.5884 39.762 73.2918 40.314 73.8438C40.8661 74.3959 41.5694 74.7718 42.3351 74.9242C43.1009 75.0765 43.8945 74.9983 44.6158 74.6995C45.3371 74.4008 45.9536 73.8948 46.3874 73.2457C46.8211 72.5965 47.0526 71.8333 47.0526 71.0526C47.0526 70.0057 46.6367 69.0017 45.8964 68.2614C45.1562 67.5211 44.1521 67.1053 43.1052 67.1053ZM70.7368 59.2105H39.1579C38.4599 59.2105 37.7906 58.9333 37.2971 58.4398C36.8035 57.9462 36.5263 57.2769 36.5263 56.5789C36.5263 55.881 36.8035 55.2117 37.2971 54.7181C37.7906 54.2246 38.4599 53.9474 39.1579 53.9474H61.5032C63.2174 53.9418 64.8837 53.3809 66.2524 52.3487C67.621 51.3164 68.6183 49.8684 69.0947 48.2216L73.2669 33.6182C73.3788 33.2265 73.3983 32.8142 73.3238 32.4137C73.2493 32.0133 73.0829 31.6356 72.8377 31.3103C72.5924 30.9851 72.275 30.7213 71.9105 30.5396C71.5459 30.3578 71.1441 30.2632 70.7368 30.2632H38.4712C37.9264 28.7299 36.9222 27.4019 35.5953 26.46C34.2684 25.5182 32.6834 25.0084 31.0563 25H28.6315C27.9336 25 27.2643 25.2773 26.7707 25.7708C26.2772 26.2643 26 26.9336 26 27.6316C26 28.3295 26.2772 28.9989 26.7707 29.4924C27.2643 29.9859 27.9336 30.2632 28.6315 30.2632H31.0563C31.6275 30.2652 32.1828 30.4521 32.6389 30.7961C33.095 31.1401 33.4274 31.6226 33.5863 32.1713L33.9956 33.6048L33.9962 33.6182L38.3137 48.7292C36.3046 48.9453 34.4549 49.9235 33.1454 51.4624C31.8359 53.0013 31.1663 54.9838 31.2745 57.0015C31.3827 59.0192 32.2604 60.9187 33.727 62.3088C35.1935 63.6988 37.1372 64.4736 39.1579 64.4737H70.7368C71.4347 64.4737 72.1041 64.1964 72.5976 63.7029C73.0911 63.2094 73.3684 62.54 73.3684 61.8421C73.3684 61.1442 73.0911 60.4748 72.5976 59.9813C72.1041 59.4878 71.4347 59.2105 70.7368 59.2105ZM67.2482 35.5263L64.0345 46.7748C63.8757 47.3239 63.5432 47.8069 63.0869 48.1511C62.6305 48.4954 62.0748 48.6824 61.5032 48.6842H43.7747L43.1038 46.3363L40.0169 35.5263H67.2482ZM64.1579 67.1053C63.3771 67.1053 62.614 67.3368 61.9648 67.7705C61.3157 68.2043 60.8097 68.8208 60.511 69.542C60.2122 70.2633 60.134 71.057 60.2863 71.8227C60.4387 72.5884 60.8146 73.2918 61.3667 73.8438C61.9187 74.3959 62.6221 74.7718 63.3878 74.9242C64.1535 75.0765 64.9472 74.9983 65.6685 74.6995C66.3897 74.4008 67.0062 73.8948 67.44 73.2457C67.8737 72.5965 68.1052 71.8333 68.1052 71.0526C68.1052 70.0057 67.6893 69.0017 66.9491 68.2614C66.2088 67.5211 65.2048 67.1053 64.1579 67.1053Z" fill="white"/>
</svg>
