<svg width="100" height="100" viewBox="0 0 100 100" fill="none" xmlns="http://www.w3.org/2000/svg">
<rect width="100" height="100" rx="50" fill="#E8AA33"/>
<path d="M45.5625 68.5804L40.1786 66.1875V63.8572C41.5893 62.8661 42.5804 61.3125 42.8036 59.5179C44.3661 59.134 45.5357 57.7322 45.5357 56.0536V53.375C45.5357 48.4554 41.5268 44.4465 36.6071 44.4465C31.6875 44.4465 27.6786 48.4554 27.6786 53.375V56.0536C27.6786 57.7322 28.8482 59.134 30.4107 59.5179C30.6339 61.3125 31.625 62.8661 33.0357 63.8572V66.1875L27.6518 68.5804C26.0357 69.3036 25 70.9018 25 72.6607V75.6965C25 76.1875 25.4018 76.5893 25.8929 76.5893H47.3214C47.8125 76.5893 48.2143 76.1875 48.2143 75.6965V72.6607C48.2143 70.9018 47.1696 69.3036 45.5625 68.5804ZM29.4643 56.0536V53.375C29.4643 49.4375 32.6696 46.2322 36.6071 46.2322C40.5446 46.2322 43.75 49.4375 43.75 53.375V56.0536C43.75 56.7143 43.3839 57.2768 42.8571 57.5893V54.2679C42.8571 53.7768 42.4554 53.375 41.9643 53.375H39.6518L38.125 51.8482C37.7768 51.5 37.2143 51.5 36.8661 51.8482L35.3393 53.375H31.2411C30.75 53.375 30.3482 53.7768 30.3482 54.2679V57.5893C29.8214 57.2768 29.4554 56.7054 29.4554 56.0536H29.4643ZM32.1429 58.7322V55.1607H35.7143C35.9554 55.1607 36.1786 55.0625 36.3482 54.9018L37.5 53.75L38.6518 54.9018C38.8214 55.0715 39.0446 55.1607 39.2857 55.1607H41.0714V58.7322C41.0714 61.1965 39.0714 63.1965 36.6071 63.1965C34.1429 63.1965 32.1429 61.1965 32.1429 58.7322ZM36.6071 64.9822C37.2321 64.9822 37.8304 64.884 38.3929 64.7232V66.2947L36.6071 67.4822L34.8214 66.2947V64.7232C35.3839 64.8929 35.9821 64.9822 36.6071 64.9822ZM46.4286 74.8036H26.7857V72.6607C26.7857 71.6072 27.4107 70.6429 28.3839 70.2054L33.8482 67.7768L36.1161 69.2857C36.2679 69.384 36.4375 69.4375 36.6071 69.4375C36.7768 69.4375 36.9554 69.384 37.0982 69.2857L39.3661 67.7768L44.8214 70.2054C45.7946 70.6429 46.4196 71.5982 46.4196 72.6607V74.8036H46.4286ZM72.3482 68.5804L66.9643 66.1875V63.8572C68.375 62.8661 69.3661 61.3125 69.5893 59.5179C71.1518 59.1429 72.3214 57.7322 72.3214 56.0536V53.375C72.3214 48.4554 68.3125 44.4465 63.3929 44.4465C58.4732 44.4465 54.4643 48.4554 54.4643 53.375V56.0536C54.4643 57.7322 55.6339 59.134 57.1964 59.5179C57.4196 61.3125 58.4107 62.8661 59.8214 63.8572V66.1875L54.4375 68.5804C52.8304 69.3036 51.7857 70.9018 51.7857 72.6607V75.6965C51.7857 76.1875 52.1875 76.5893 52.6786 76.5893H74.1071C74.5982 76.5893 75 76.1875 75 75.6965V72.6607C75 70.9018 73.9554 69.3036 72.3482 68.5804ZM56.25 56.0536V53.375C56.25 49.4375 59.4554 46.2322 63.3929 46.2322C67.3304 46.2322 70.5357 49.4375 70.5357 53.375V56.0536C70.5357 56.7143 70.1696 57.2768 69.6429 57.5893V54.2679C69.6429 53.7768 69.2411 53.375 68.75 53.375H66.4375L64.9107 51.8482C64.5625 51.5 64 51.5 63.6518 51.8482L62.125 53.375H58.0268C57.5357 53.375 57.1339 53.7768 57.1339 54.2679V57.5893C56.6071 57.2768 56.2411 56.7143 56.2411 56.0536H56.25ZM58.9286 58.7322V55.1607H62.5C62.7411 55.1607 62.9643 55.0625 63.1339 54.9018L64.2857 53.75L65.4375 54.9018C65.6071 55.0715 65.8304 55.1607 66.0714 55.1607H67.8571V58.7322C67.8571 61.1965 65.8571 63.1965 63.3929 63.1965C60.9286 63.1965 58.9286 61.1965 58.9286 58.7322ZM63.3929 64.9822C64.0179 64.9822 64.6161 64.884 65.1786 64.7232V66.2947L63.3929 67.4822L61.6071 66.2947V64.7232C62.1696 64.8929 62.7679 64.9822 63.3929 64.9822ZM73.2143 74.8036H53.5714V72.6607C53.5714 71.6072 54.1964 70.6429 55.1696 70.2054L60.6339 67.7768L62.9018 69.2857C63.0536 69.384 63.2232 69.4375 63.3929 69.4375C63.5625 69.4375 63.7411 69.384 63.8839 69.2857L66.1518 67.7768L71.6071 70.2054C72.5804 70.6429 73.2054 71.5982 73.2054 72.6607V74.8036H73.2143ZM58.8214 42.7947C58.9732 43.1072 59.2946 43.2947 59.625 43.2947C59.7589 43.2947 59.8929 43.2679 60.0179 43.2054C60.4643 42.9911 60.6429 42.4554 60.4196 42.009C58.4464 38.009 54.4464 35.5179 49.9911 35.5179C45.5357 35.5179 41.5446 38 39.5625 42.009C39.3482 42.4554 39.5268 42.9911 39.9643 43.2054C40.4107 43.4197 40.9464 43.2411 41.1607 42.8036C42.8304 39.4107 46.2143 37.3125 49.9821 37.3125C53.75 37.3125 57.1339 39.4197 58.8036 42.8036L58.8214 42.7947Z" fill="white"/>
<path d="M32.1964 36.8929C31.1964 38.6161 30.4643 40.4911 30.0089 42.4554C29.9018 42.9375 30.1964 43.4196 30.6786 43.5268C31.1607 43.6339 31.6428 43.3393 31.75 42.8571C32.2143 40.8482 33 38.9554 34.0803 37.2321C34.3036 36.875 34.25 36.4196 33.9553 36.125L31.6964 33.8661L36.75 28.8125L39.0089 31.0714C39.3036 31.3661 39.7589 31.4196 40.1161 31.1964C41.8393 30.1161 43.7321 29.3304 45.7411 28.8661C46.1428 28.7768 46.4286 28.4107 46.4286 28V24.8036H53.5714V28C53.5714 28.4196 53.8571 28.7768 54.2589 28.8661C56.2678 29.3304 58.1607 30.1161 59.8839 31.1964C60.2321 31.4196 60.6964 31.3661 60.9911 31.0714L63.25 28.8125L68.3036 33.8661L66.0446 36.125C65.75 36.4196 65.6964 36.875 65.9196 37.2321C67 38.9554 67.7857 40.8482 68.25 42.8571C68.3482 43.2679 68.7143 43.5446 69.1161 43.5446C69.1875 43.5446 69.25 43.5446 69.3214 43.5179C69.8036 43.4107 70.0982 42.9286 69.9911 42.4464C69.5357 40.4732 68.7946 38.6071 67.7946 36.8839L70.1964 34.4821C70.3661 34.3125 70.4553 34.0893 70.4553 33.8482C70.4553 33.6071 70.3571 33.3839 70.1964 33.2143L63.8839 26.9018C63.5446 26.5625 62.9553 26.5625 62.625 26.9018L60.2232 29.3036C58.6964 28.4196 57.0625 27.75 55.3482 27.2857V23.8929C55.3482 23.4018 54.9464 23 54.4553 23H45.5268C45.0357 23 44.6339 23.4018 44.6339 23.8929V27.2857C42.9196 27.75 41.2857 28.4196 39.7589 29.3036L37.3571 26.9018C37.0089 26.5536 36.4464 26.5536 36.0982 26.9018L29.7857 33.2143C29.4375 33.5625 29.4375 34.125 29.7857 34.4732L32.1875 36.875L32.1964 36.8929Z" fill="white"/>
</svg>
