<svg width="39" height="55" viewBox="0 0 39 55" fill="none" xmlns="http://www.w3.org/2000/svg">
<g clip-path="url(#clip0_118_144)">
<path d="M38.7477 33.6732C38.7477 34.7796 38.6651 35.8696 38.5 36.9298C36.9311 47.1622 28.0892 55 17.4208 55C11.644 55 6.40233 52.7045 2.56105 48.9689L8.34774 43.1822C10.706 45.4348 13.9032 46.8154 17.4208 46.8154C23.5576 46.8154 28.7102 42.6108 30.1601 36.9265H14.6034L19.7263 31.8037H38.6717C38.7246 32.4181 38.751 33.0423 38.751 33.6699L38.7477 33.6732Z" fill="white"/>
<path d="M38.391 28.9268H29.9752C29.3674 26.9649 28.3105 25.2011 26.9299 23.7545L32.7166 17.9678C35.5901 20.9239 37.6115 24.7057 38.391 28.9268Z" fill="white"/>
<path d="M31.0717 0V15.2991L29.0074 17.2775L27.0125 19.1866L19.7296 26.1524L17.3977 28.3819L15.3268 26.1524L9.01823 19.3517V36.4013L0.252319 44.7907V0L9.01823 8.82867L17.3977 17.2709V17.2775H17.4043L31.0717 0Z" fill="white"/>
</g>
<defs>
<clipPath id="clip0_118_144">
<rect width="38.4954" height="55" fill="white" transform="translate(0.252319)"/>
</clipPath>
</defs>
</svg>
