<svg width="39" height="56" viewBox="0 0 39 56" fill="none" xmlns="http://www.w3.org/2000/svg">
<g clip-path="url(#clip0_118_139)">
<path d="M38.4954 34.1732C38.4954 35.2796 38.4128 36.3696 38.2476 37.4298C36.6788 47.6622 27.8369 55.5 17.1685 55.5C11.3917 55.5 6.15 53.2045 2.30872 49.4689L8.09541 43.6822C10.4537 45.9348 13.6509 47.3154 17.1685 47.3154C23.3053 47.3154 28.4578 43.1108 29.9078 37.4265H14.3511L19.4739 32.3037H38.4194C38.4722 32.9181 38.4987 33.5423 38.4987 34.1699L38.4954 34.1732Z" fill="#37AD8B"/>
<path d="M38.1386 29.4268H29.7228C29.1151 27.4649 28.0582 25.7011 26.6776 24.2545L32.4642 18.4678C35.3378 21.4239 37.3592 25.2057 38.1386 29.4268Z" fill="#37AD8B"/>
<path d="M30.8194 0.5V15.7991L28.7551 17.7775L26.7601 19.6866L19.4772 26.6524L17.1454 28.8819L15.0745 26.6524L8.76591 19.8517V36.9013L0 45.2907V0.5L8.76591 9.32867L17.1454 17.7709V17.7775H17.152L30.8194 0.5Z" fill="white"/>
</g>
<defs>
<clipPath id="clip0_118_139">
<rect width="38.4954" height="55" fill="white" transform="translate(0 0.5)"/>
</clipPath>
</defs>
</svg>
