<svg width="40" height="40" viewBox="0 0 40 40" fill="none" xmlns="http://www.w3.org/2000/svg">
<path opacity="0.4" fill-rule="evenodd" clip-rule="evenodd" d="M5 18.3334C5 17.4129 5.7462 16.6667 6.66667 16.6667H10C10.9205 16.6667 11.6667 17.4129 11.6667 18.3334V21.6667C11.6667 22.5872 10.9205 23.3334 10 23.3334H6.66667C5.7462 23.3334 5 22.5872 5 21.6667V18.3334ZM18.3333 16.6667C17.4128 16.6667 16.6667 17.4129 16.6667 18.3334V21.6667C16.6667 22.5872 17.4128 23.3334 18.3333 23.3334H21.6667C22.5872 23.3334 23.3333 22.5872 23.3333 21.6667V18.3334C23.3333 17.4129 22.5872 16.6667 21.6667 16.6667H18.3333ZM18.3333 28.3334C17.4128 28.3334 16.6667 29.0796 16.6667 30.0001V33.3334C16.6667 34.2539 17.4128 35.0001 18.3333 35.0001H21.6667C22.5872 35.0001 23.3333 34.2539 23.3333 33.3334V30.0001C23.3333 29.0796 22.5872 28.3334 21.6667 28.3334H18.3333ZM28.3333 18.3334C28.3333 17.4129 29.0795 16.6667 30 16.6667H33.3333C34.2538 16.6667 35 17.4129 35 18.3334V21.6667C35 22.5872 34.2538 23.3334 33.3333 23.3334H30C29.0795 23.3334 28.3333 22.5872 28.3333 21.6667V18.3334ZM30 28.3334C29.0795 28.3334 28.3333 29.0796 28.3333 30.0001V33.3334C28.3333 34.2539 29.0795 35.0001 30 35.0001H33.3333C34.2538 35.0001 35 34.2539 35 33.3334V30.0001C35 29.0796 34.2538 28.3334 33.3333 28.3334H30ZM6.66667 28.3334C5.7462 28.3334 5 29.0796 5 30.0001V33.3334C5 34.2539 5.7462 35.0001 6.66667 35.0001H10C10.9205 35.0001 11.6667 34.2539 11.6667 33.3334V30.0001C11.6667 29.0796 10.9205 28.3334 10 28.3334H6.66667Z" fill="#0F8C6E"/>
<path fill-rule="evenodd" clip-rule="evenodd" d="M5 6.66667C5 5.7462 5.7462 5 6.66667 5H10C10.9205 5 11.6667 5.7462 11.6667 6.66667V10C11.6667 10.9205 10.9205 11.6667 10 11.6667H6.66667C5.7462 11.6667 5 10.9205 5 10V6.66667ZM16.6667 6.66667C16.6667 5.7462 17.4128 5 18.3333 5H21.6667C22.5872 5 23.3333 5.7462 23.3333 6.66667V10C23.3333 10.9205 22.5872 11.6667 21.6667 11.6667H18.3333C17.4128 11.6667 16.6667 10.9205 16.6667 10V6.66667ZM30 5C29.0795 5 28.3333 5.7462 28.3333 6.66667V10C28.3333 10.9205 29.0795 11.6667 30 11.6667H33.3333C34.2538 11.6667 35 10.9205 35 10V6.66667C35 5.7462 34.2538 5 33.3333 5H30Z" fill="#0F8C6E"/>
</svg>
